<svg xmlns="http://www.w3.org/2000/svg" version="1.1" xmlns:xlink="http://www.w3.org/1999/xlink" xmlns:svgjs="http://svgjs.dev/svgjs" width="1500" height="1500" viewBox="0 0 1500 1500"><rect width="1500" height="1500" fill="#000000"></rect><g transform="matrix(0.6666666666666666,0,0,0.6666666666666666,249.39393939393938,582.8517041805303)"><svg viewBox="0 0 396 133" data-background-color="#ffffff" preserveAspectRatio="xMidYMid meet" height="503" width="1500" xmlns="http://www.w3.org/2000/svg" xmlns:xlink="http://www.w3.org/1999/xlink"><g id="tight-bounds" transform="matrix(1,0,0,1,0.2400000000000091,-0.20559638969339744)"><svg viewBox="0 0 395.52 133.4111927793868" height="133.4111927793868" width="395.52"><g><svg viewBox="0 0 635.8874171663629 214.48851839999998" height="133.4111927793868" width="395.52"><g transform="matrix(1,0,0,1,240.36741716636283,52.43373469441099)"><svg viewBox="0 0 395.52 109.621049011178" height="109.621049011178" width="395.52"><g id="textblocktransform"><svg viewBox="0 0 395.52 109.621049011178" height="109.621049011178" width="395.52" id="textblock"><g><svg viewBox="0 0 395.52 109.621049011178" height="109.621049011178" width="395.52"><g transform="matrix(1,0,0,1,0,0)"><svg width="395.52" viewBox="4.5 -36.75 174.44 48.35" height="109.621049011178" data-palette-color="#ebeeff"><path d="M25.5 0L4.5 0 4.5-35 25.5-35 25.5-30.9 9.25-30.9 9.25-20.25 23.25-20.25 23.25-16.25 9.25-16.25 9.25-4.1 25.5-4.1 25.5 0ZM35.75 0L31.25 0 31.25-26 35.6-26 35.6-21.65Q37-23.75 39.17-25.18 41.35-26.6 44.35-26.6L44.35-26.6Q48.75-26.6 50.92-23.95 53.1-21.3 53.1-16.95L53.1-16.95 53.1 0 48.6 0 48.6-16.45Q48.6-19.25 47.27-20.95 45.95-22.65 43.6-22.65L43.6-22.65Q41.3-22.65 39.25-21.03 37.2-19.4 35.75-17.2L35.75-17.2 35.75 0ZM70.39 11.6L70.39 11.6Q68.09 11.6 65.92 11.05 63.74 10.5 62.05 9.4L62.05 9.4 63.7 5.5Q64.89 6.45 66.5 7.08 68.09 7.7 70.39 7.7L70.39 7.7Q73.94 7.7 75.97 5.83 78 3.95 78-0.15L78-0.15 78-3.35Q77-2.15 75.12-1.07 73.25 0 70.64 0L70.64 0Q67.69 0 65.05-1.53 62.39-3.05 60.74-6 59.09-8.95 59.09-13.1L59.09-13.1Q59.09-17 60.72-20.05 62.34-23.1 65.09-24.85 67.84-26.6 71.14-26.6L71.14-26.6Q73.34-26.6 75.14-25.85 76.94-25.1 78.25-24L78.25-24 78.25-26 82.34-26 82.34-0.6Q82.34 3.7 80.84 6.4 79.34 9.1 76.67 10.35 74 11.6 70.39 11.6ZM71.64-4L71.64-4Q73.64-4 75.25-4.9 76.84-5.8 77.84-7L77.84-7 77.84-20.6Q76.75-21.4 75.19-22.05 73.64-22.7 71.59-22.7L71.59-22.7Q69.55-22.7 67.75-21.6 65.94-20.5 64.82-18.43 63.7-16.35 63.7-13.35L63.7-13.35Q63.7-10.5 64.82-8.4 65.94-6.3 67.75-5.15 69.55-4 71.64-4ZM111.39 0L90.59 0 90.59-35 95.34-35 95.34-4.25 111.39-4.25 111.39 0ZM120.14 0L115.64 0 115.64-26 120.14-26 120.14 0ZM117.89-30.45L117.89-30.45Q116.59-30.45 115.67-31.4 114.74-32.35 114.74-33.6L114.74-33.6Q114.74-35.05 115.59-35.9 116.44-36.75 117.89-36.75L117.89-36.75Q119.19-36.75 120.11-35.83 121.04-34.9 121.04-33.6L121.04-33.6Q121.04-32.2 120.19-31.33 119.34-30.45 117.89-30.45ZM132.64 0L128.14 0 128.14-26 132.49-26 132.49-21.65Q133.89-23.75 136.06-25.18 138.24-26.6 141.24-26.6L141.24-26.6Q145.64-26.6 147.81-23.95 149.99-21.3 149.99-16.95L149.99-16.95 149.99 0 145.49 0 145.49-16.45Q145.49-19.25 144.16-20.95 142.84-22.65 140.49-22.65L140.49-22.65Q138.19-22.65 136.14-21.03 134.09-19.4 132.64-17.2L132.64-17.2 132.64 0ZM168.14 0.6L168.14 0.6Q162.54 0.6 159.26-2.98 155.99-6.55 155.99-13L155.99-13Q155.99-16.9 157.46-19.98 158.94-23.05 161.59-24.83 164.24-26.6 167.74-26.6L167.74-26.6Q171.49-26.6 173.96-24.98 176.44-23.35 177.69-20.6 178.94-17.85 178.94-14.55L178.94-14.55Q178.94-12.8 178.79-11.15L178.79-11.15 160.59-11.15Q161.04-7.5 163.14-5.45 165.24-3.4 168.69-3.4L168.69-3.4Q170.94-3.4 172.74-3.88 174.54-4.35 176.19-5.1L176.19-5.1 177.24-1.25Q175.44-0.45 173.19 0.08 170.94 0.6 168.14 0.6ZM160.54-14.8L160.54-14.8 174.79-14.8Q174.79-18.6 172.89-20.65 170.99-22.7 167.64-22.7L167.64-22.7Q164.74-22.7 162.84-20.68 160.94-18.65 160.54-14.8Z" opacity="1" transform="matrix(1,0,0,1,0,0)" fill="#ffffff" class="wordmark-text-0" data-fill-palette-color="primary" id="text-0"></path></svg></g></svg></g></svg></g></svg></g><g><svg viewBox="0 0 214.48851839999998 214.48851839999998" height="214.48851839999998" width="214.48851839999998"><g><svg></svg></g><g id="icon-0"><svg viewBox="0 0 214.48851839999998 214.48851839999998" height="214.48851839999998" width="214.48851839999998"><g><rect width="195.02567136" height="195.02567136" x="9.731423519999993" y="9.731423519999993" fill="#ffffff" data-fill-palette-color="accent"></rect><rect width="195.02567136" height="195.02567136" x="19.462847039999993" y="-5.329070518200751e-15" fill="#ffffff" opacity="0.5" data-fill-palette-color="accent"></rect></g><g transform="matrix(1,0,0,1,27.80406719999999,37.734091199999995)"><svg viewBox="0 0 158.880384 139.020336" height="139.020336" width="158.880384"><g><svg xmlns="http://www.w3.org/2000/svg" xmlns:xlink="http://www.w3.org/1999/xlink" version="1.1" x="0" y="0" viewBox="0 0 100 87.5" style="enable-background:new 0 0 100 87.5;" xml:space="preserve" id="dxe-0" width="158.880384" height="139.020336" class="icon-dxe-0" data-fill-palette-color="quaternary"><path d="M50 12.5S37.5 0 0 0V75C37.891 75 50 87.5 50 87.5S62.109 75 100 75V0C62.5 0 50 12.5 50 12.5M12.5 12.5C28.388 13.83 38.135 17.505 43.75 20.483V70.825C38.135 67.859 28.388 64.184 12.5 62.842zM87.5 62.842C71.606 64.185 61.859 67.86 56.25 70.825V20.483C61.859 17.504 71.606 13.83 87.5 12.5z" fill="#000000" data-fill-palette-color="quaternary"></path></svg></g></svg></g></svg></g></svg></g></svg></g><defs></defs></svg><rect width="395.52" height="133.4111927793868" fill="none" stroke="none" visibility="hidden"></rect></g></svg></g></svg>